<mxfile host="app.diagrams.net" modified="2023-03-29T03:24:41.864Z" agent="Mozilla/5.0 (X11; Linux x86_64; rv:91.0) Gecko/20100101 Firefox/91.0" version="21.1.1" etag="IUz-SngcgQDNo9q5pVwY" type="github">
  <diagram name="第 1 页" id="GeXX6B51m9GPOHVmY6md">
    <mxGraphModel>
      <root>
        <mxCell id="0" />
        <mxCell id="1" parent="0" />
      </root>
    </mxGraphModel>
  </diagram>
</mxfile>
